<svg width="15" height="15" viewBox="0 0 15 15" fill="none" xmlns="http://www.w3.org/2000/svg">
<path d="M13.3714 8.22857H8.22857V13.3714C8.22857 13.6442 8.1202 13.9058 7.92731 14.0987C7.73441 14.2916 7.47279 14.4 7.2 14.4C6.92721 14.4 6.66558 14.2916 6.47269 14.0987C6.2798 13.9058 6.17143 13.6442 6.17143 13.3714V8.22857H1.02857C0.755777 8.22857 0.494156 8.1202 0.301262 7.92731C0.108367 7.73442 0 7.47279 0 7.2C0 6.92721 0.108367 6.66559 0.301262 6.47269C0.494156 6.2798 0.755777 6.17143 1.02857 6.17143H6.17143V1.02857C6.17143 0.755777 6.2798 0.494156 6.47269 0.301261C6.66558 0.108367 6.92721 0 7.2 0C7.47279 0 7.73441 0.108367 7.92731 0.301261C8.1202 0.494156 8.22857 0.755777 8.22857 1.02857V6.17143H13.3714C13.6442 6.17143 13.9058 6.2798 14.0987 6.47269C14.2916 6.66559 14.4 6.92721 14.4 7.2C14.4 7.47279 14.2916 7.73442 14.0987 7.92731C13.9058 8.1202 13.6442 8.22857 13.3714 8.22857Z" fill="white"/>
</svg>
