<svg width="24" height="24" viewBox="0 0 24 24" fill="none" xmlns="http://www.w3.org/2000/svg">
<path fill-rule="evenodd" clip-rule="evenodd" d="M9.4 11.2888C8.01 10.7788 7.24 10.4888 6.75 9.80882C6.53683 9.51872 6.38383 9.18892 6.3 8.83882C6.09 8.01882 6.38 7.21882 6.91 5.76882L7.61 6.02882L8.31 6.28882C7.88 7.46882 7.65 8.10882 7.74 8.48882C7.78 8.65882 7.85 8.80882 7.95 8.93882C8.18 9.24882 8.79 9.47882 9.91 9.88882L10.01 9.92882C11.2 10.3688 11.83 10.5988 12.21 10.4988C12.37 10.4588 12.52 10.3888 12.66 10.2888C12.96 10.0588 13.2 9.41882 13.62 8.26882C14.06 7.05882 14.29 6.41882 14.2 6.03882C14.16 5.86882 14.09 5.71882 13.99 5.58882C13.76 5.27882 13.15 5.04882 12.03 4.63882L11.93 4.59882L11.761 4.53882C10.679 4.14682 10.091 3.93382 9.729 4.02882C9.569 4.06882 9.419 4.13882 9.279 4.23882C8.979 4.46882 8.739 5.10882 8.319 6.25882L7.61 6.02882L6.919 5.73882L6.929 5.71482C7.453 4.29982 7.743 3.51582 8.419 3.01882C8.709 2.80882 9.019 2.66882 9.369 2.56882C10.189 2.36182 10.97 2.64182 12.358 3.14082L12.409 3.15882L12.559 3.21882C13.949 3.72882 14.719 4.01882 15.209 4.69882C15.419 4.97882 15.569 5.30882 15.659 5.66882C15.869 6.48882 15.579 7.28882 15.049 8.73882L15.042 8.75882C14.507 10.2058 14.216 10.9908 13.539 11.4888C13.249 11.6988 12.939 11.8388 12.589 11.9388C12.409 11.9888 12.219 12.0088 12.029 12.0088C11.369 12.0088 10.649 11.7488 9.549 11.3488L9.4 11.2888ZM21.69 15.6688C21.53 14.8248 20.929 14.2188 19.805 13.0848L19.779 13.0588C18.689 11.9688 18.089 11.3788 17.259 11.2288C16.909 11.1588 16.569 11.1588 16.239 11.2288C15.396 11.3778 14.799 11.9688 13.685 13.0738L13.659 13.0988C12.549 14.2088 11.939 14.8188 11.779 15.6788C11.719 16.0188 11.719 16.3588 11.779 16.6888C11.939 17.5388 12.549 18.1488 13.659 19.2588L13.699 19.2988L13.725 19.3238C14.799 20.3878 15.396 20.9798 16.249 21.1388C16.409 21.1688 16.569 21.1788 16.739 21.1788C16.909 21.1788 17.079 21.1688 17.259 21.1388C18.093 20.9798 18.69 20.3888 19.803 19.2848L19.829 19.2588C20.939 18.1488 21.549 17.5388 21.709 16.6888C21.769 16.3588 21.769 16.0188 21.709 15.6788L21.69 15.6688ZM18.72 18.2388L18.672 18.2848C17.822 19.1258 17.352 19.5898 16.989 19.6588C16.819 19.6888 16.659 19.6888 16.509 19.6588C16.126 19.5798 15.656 19.1158 14.805 18.2738L14.759 18.2288L14.719 18.1888C13.819 17.2888 13.329 16.7988 13.259 16.3988C13.229 16.2488 13.229 16.0888 13.259 15.9288C13.329 15.5458 13.813 15.0558 14.704 14.1548L14.749 14.1088L14.792 14.0668C15.645 13.2228 16.116 12.7568 16.509 12.6888C16.659 12.6588 16.799 12.6588 16.969 12.6888C17.353 12.7578 17.824 13.2228 18.705 14.0948L18.749 14.1388C19.649 15.0388 20.139 15.5388 20.209 15.9188C20.239 16.0788 20.239 16.2388 20.209 16.3888C20.139 16.7788 19.639 17.2788 18.709 18.2088L18.72 18.2388ZM9.52 13.9688C8.83 13.4988 8 13.4988 6.49 13.4988C4.98 13.4988 4.15 13.4988 3.48 13.9588C3.18 14.1488 2.92 14.4088 2.71 14.7188C2.25 15.4088 2.25 16.2388 2.25 17.7488C2.25 19.2588 2.25 20.0888 2.71 20.7688C2.92 21.0788 3.18 21.3388 3.47 21.5288C4.16 21.9988 4.99 21.9988 6.5 21.9988C8.01 21.9988 8.84 21.9988 9.51 21.5388C9.81 21.3488 10.07 21.0888 10.28 20.7788C10.74 20.0888 10.74 19.2588 10.74 17.7488C10.74 16.2388 10.74 15.4088 10.28 14.7288C10.07 14.4188 9.81 14.1588 9.52 13.9688ZM9.03 19.9488C8.94 20.0888 8.82 20.1988 8.68 20.2888C8.37 20.4988 7.7 20.4988 6.49 20.4988C5.28 20.4988 4.61 20.4988 4.28 20.2788C4.15 20.1988 4.04 20.0788 3.95 19.9388C3.74 19.6288 3.74 18.9188 3.74 17.7488C3.74 16.5788 3.74 15.8688 3.95 15.5488C4.04 15.4088 4.16 15.2988 4.3 15.2088C4.61 14.9988 5.28 14.9988 6.49 14.9988C7.7 14.9988 8.37 14.9988 8.7 15.2188C8.83 15.2988 8.94 15.4188 9.03 15.5588C9.24 15.8688 9.24 16.5788 9.24 17.7488C9.24 18.9188 9.24 19.6288 9.03 19.9488Z" fill="#DADADA"/>
<path d="M7.61 6.02882L6.91 5.76882C6.38 7.21882 6.09 8.01882 6.3 8.83882C6.38383 9.18892 6.53683 9.51872 6.75 9.80882C7.24 10.4888 8.01 10.7788 9.4 11.2888L9.549 11.3488C10.649 11.7488 11.369 12.0088 12.029 12.0088C12.219 12.0088 12.409 11.9888 12.589 11.9388C12.939 11.8388 13.249 11.6988 13.539 11.4888C14.216 10.9908 14.507 10.2058 15.042 8.75882L15.049 8.73882C15.579 7.28882 15.869 6.48882 15.659 5.66882C15.569 5.30882 15.419 4.97882 15.209 4.69882C14.719 4.01882 13.949 3.72882 12.559 3.21882L12.409 3.15882L12.358 3.14082C10.97 2.64182 10.189 2.36182 9.369 2.56882C9.019 2.66882 8.709 2.80882 8.419 3.01882C7.743 3.51582 7.453 4.29982 6.929 5.71482L6.919 5.73882L7.61 6.02882ZM7.61 6.02882L8.31 6.28882C7.88 7.46882 7.65 8.10882 7.74 8.48882C7.78 8.65882 7.85 8.80882 7.95 8.93882C8.18 9.24882 8.79 9.47882 9.91 9.88882L10.01 9.92882C11.2 10.3688 11.83 10.5988 12.21 10.4988C12.37 10.4588 12.52 10.3888 12.66 10.2888C12.96 10.0588 13.2 9.41882 13.62 8.26882C14.06 7.05882 14.29 6.41882 14.2 6.03882C14.16 5.86882 14.09 5.71882 13.99 5.58882C13.76 5.27882 13.15 5.04882 12.03 4.63882L11.93 4.59882L11.761 4.53882C10.679 4.14682 10.091 3.93382 9.729 4.02882C9.569 4.06882 9.419 4.13882 9.279 4.23882C8.979 4.46882 8.739 5.10882 8.319 6.25882L7.61 6.02882ZM21.69 15.6688C21.53 14.8248 20.929 14.2188 19.805 13.0848L19.779 13.0588C18.689 11.9688 18.089 11.3788 17.259 11.2288C16.909 11.1588 16.569 11.1588 16.239 11.2288C15.396 11.3778 14.799 11.9688 13.685 13.0738L13.659 13.0988C12.549 14.2088 11.939 14.8188 11.779 15.6788C11.719 16.0188 11.719 16.3588 11.779 16.6888C11.939 17.5388 12.549 18.1488 13.659 19.2588L13.699 19.2988L13.725 19.3238C14.799 20.3878 15.396 20.9798 16.249 21.1388C16.409 21.1688 16.569 21.1788 16.739 21.1788C16.909 21.1788 17.079 21.1688 17.259 21.1388C18.093 20.9798 18.69 20.3888 19.803 19.2848L19.829 19.2588C20.939 18.1488 21.549 17.5388 21.709 16.6888C21.769 16.3588 21.769 16.0188 21.709 15.6788L21.69 15.6688ZM18.72 18.2388L18.672 18.2848C17.822 19.1258 17.352 19.5898 16.989 19.6588C16.819 19.6888 16.659 19.6888 16.509 19.6588C16.126 19.5798 15.656 19.1158 14.805 18.2738L14.759 18.2288L14.719 18.1888C13.819 17.2888 13.329 16.7988 13.259 16.3988C13.229 16.2488 13.229 16.0888 13.259 15.9288C13.329 15.5458 13.813 15.0558 14.704 14.1548L14.749 14.1088L14.792 14.0668C15.645 13.2228 16.116 12.7568 16.509 12.6888C16.659 12.6588 16.799 12.6588 16.969 12.6888C17.353 12.7578 17.824 13.2228 18.705 14.0948L18.749 14.1388C19.649 15.0388 20.139 15.5388 20.209 15.9188C20.239 16.0788 20.239 16.2388 20.209 16.3888C20.139 16.7788 19.639 17.2788 18.709 18.2088L18.72 18.2388ZM9.52 13.9688C8.83 13.4988 8 13.4988 6.49 13.4988C4.98 13.4988 4.15 13.4988 3.48 13.9588C3.18 14.1488 2.92 14.4088 2.71 14.7188C2.25 15.4088 2.25 16.2388 2.25 17.7488C2.25 19.2588 2.25 20.0888 2.71 20.7688C2.92 21.0788 3.18 21.3388 3.47 21.5288C4.16 21.9988 4.99 21.9988 6.5 21.9988C8.01 21.9988 8.84 21.9988 9.51 21.5388C9.81 21.3488 10.07 21.0888 10.28 20.7788C10.74 20.0888 10.74 19.2588 10.74 17.7488C10.74 16.2388 10.74 15.4088 10.28 14.7288C10.07 14.4188 9.81 14.1588 9.52 13.9688ZM9.03 19.9488C8.94 20.0888 8.82 20.1988 8.68 20.2888C8.37 20.4988 7.7 20.4988 6.49 20.4988C5.28 20.4988 4.61 20.4988 4.28 20.2788C4.15 20.1988 4.04 20.0788 3.95 19.9388C3.74 19.6288 3.74 18.9188 3.74 17.7488C3.74 16.5788 3.74 15.8688 3.95 15.5488C4.04 15.4088 4.16 15.2988 4.3 15.2088C4.61 14.9988 5.28 14.9988 6.49 14.9988C7.7 14.9988 8.37 14.9988 8.7 15.2188C8.83 15.2988 8.94 15.4188 9.03 15.5588C9.24 15.8688 9.24 16.5788 9.24 17.7488C9.24 18.9188 9.24 19.6288 9.03 19.9488Z" stroke="#DADADA" stroke-linecap="round" stroke-linejoin="round"/>
</svg>
