<svg width="24" height="24" viewBox="0 0 24 24" fill="none" xmlns="http://www.w3.org/2000/svg">
<path d="M21 3.99975H2V5.99975H4.3L7.58 14.9998C7.78631 15.5833 8.16807 16.0888 8.67294 16.4468C9.1778 16.8049 9.78106 16.998 10.4 16.9998H19V14.9998H10.4C10.1945 14.9997 9.99399 14.9363 9.8258 14.8182C9.6576 14.7001 9.52987 14.533 9.46 14.3398L9 12.9998H18.28C18.714 12.9991 19.1361 12.8573 19.4824 12.5958C19.8288 12.3342 20.0806 11.967 20.2 11.5498L22 5.26975C22.0406 5.13844 22.0538 5.00015 22.0386 4.86353C22.0234 4.72691 21.9802 4.59488 21.9117 4.47571C21.8432 4.35653 21.7509 4.25275 21.6404 4.17086C21.53 4.08897 21.4039 4.03072 21.27 3.99975C21.1807 3.98446 21.0893 3.98446 21 3.99975ZM18.25 10.9998H8.25L6.43 5.99975H19.67L18.25 10.9998Z" fill="#DADADA"/>
<path d="M10.5 21C11.3284 21 12 20.3284 12 19.5C12 18.6716 11.3284 18 10.5 18C9.67157 18 9 18.6716 9 19.5C9 20.3284 9.67157 21 10.5 21Z" fill="#DADADA"/>
<path d="M16.5 21C17.3284 21 18 20.3284 18 19.5C18 18.6716 17.3284 18 16.5 18C15.6716 18 15 18.6716 15 19.5C15 20.3284 15.6716 21 16.5 21Z" fill="#DADADA"/>
</svg>
