<svg width="24" height="24" viewBox="0 0 24 24" fill="none" xmlns="http://www.w3.org/2000/svg">
<g clip-path="url(#clip0_411_510)">
<path d="M9.71487 18.7271L15.3446 13.0974M20.9949 14.5066C20.9949 5.92141 13.4126 1.9477 9.84173 1.01855C11.1789 4.36141 11.1052 6.83513 9.37887 9.88313C9.31291 9.99627 9.22079 10.0919 9.11023 10.1622C8.99967 10.2324 8.8739 10.275 8.74345 10.2866C8.613 10.2982 8.48167 10.2784 8.36047 10.2287C8.23927 10.1791 8.13174 10.1012 8.04687 10.0014L5.85258 7.51227C0.109727 13.6117 3.41487 23.4226 12.5057 22.9666C19.4606 22.538 20.9949 17.906 20.9949 14.5066Z" stroke="#DADADA" stroke-width="2" stroke-linecap="round" stroke-linejoin="round"/>
<path d="M10.3972 13.9167C10.2835 13.9167 10.1745 13.8716 10.0942 13.7912C10.0138 13.7108 9.96863 13.6018 9.96863 13.4881C9.96863 13.3745 10.0138 13.2655 10.0942 13.1851C10.1745 13.1047 10.2835 13.0596 10.3972 13.0596M10.3972 13.9167C10.5109 13.9167 10.6199 13.8716 10.7002 13.7912C10.7806 13.7108 10.8258 13.6018 10.8258 13.4881C10.8258 13.3745 10.7806 13.2655 10.7002 13.1851C10.6199 13.1047 10.5109 13.0596 10.3972 13.0596M14.9555 18.7664C14.8418 18.7664 14.7328 18.7213 14.6524 18.6409C14.5721 18.5605 14.5269 18.4515 14.5269 18.3379C14.5269 18.2242 14.5721 18.1152 14.6524 18.0348C14.7328 17.9544 14.8418 17.9093 14.9555 17.9093M14.9555 18.7664C15.0691 18.7664 15.1782 18.7213 15.2585 18.6409C15.3389 18.5605 15.3841 18.4515 15.3841 18.3379C15.3841 18.2242 15.3389 18.1152 15.2585 18.0348C15.1782 17.9544 15.0691 17.9093 14.9555 17.9093" stroke="#DADADA" stroke-width="2" stroke-linecap="round" stroke-linejoin="round"/>
</g>
<defs>
<clipPath id="clip0_411_510">
<rect width="24" height="24" fill="white"/>
</clipPath>
</defs>
</svg>
