<svg width="18" height="15" viewBox="0 0 18 15" fill="none" xmlns="http://www.w3.org/2000/svg">
<path d="M12.3496 0.5C14.8977 0.5 17 2.39865 17 4.78027C16.9999 6.48121 16.2755 8.00072 15.2266 9.32129C14.3105 10.4743 13.1364 11.4855 11.9551 12.3457L11.4492 12.7051C10.9352 13.0609 10.4291 13.3798 9.97363 13.6113H9.97266C9.52906 13.8375 9.09816 14 8.75 14C8.40191 14 7.97162 13.8379 7.52637 13.6113C7.01738 13.3419 6.52612 13.0402 6.05566 12.708L6.05176 12.7051L5.5459 12.3457C4.44845 11.5469 3.35814 10.6177 2.47363 9.56543L2.27344 9.32129C1.22447 8.00072 0.500078 6.4812 0.5 4.78027C0.5 2.39865 2.60231 0.5 5.15039 0.5C6.42378 0.500122 7.56725 1.09867 8.40332 1.90234L8.75 2.23535L9.09668 1.90234C9.93279 1.09862 11.0753 0.500122 12.3496 0.5ZM12.3496 1C10.9606 1.00015 9.71067 1.82062 8.94824 2.81445C8.9249 2.84487 8.89474 2.86976 8.86035 2.88672C8.82601 2.90361 8.78827 2.91211 8.75 2.91211C8.71173 2.91211 8.67399 2.90361 8.63965 2.88672C8.60526 2.86976 8.5751 2.84487 8.55176 2.81445C7.78938 1.82068 6.54044 1.00015 5.15039 1C2.83354 1 1 2.71641 1 4.78027C1.00008 6.33187 1.66083 7.74516 2.66504 9.00879C3.66988 10.2727 5.00838 11.3744 6.33594 12.2939C6.84001 12.6432 7.32595 12.9477 7.75391 13.166V13.167C7.98495 13.2847 8.17764 13.3641 8.33301 13.416C8.47613 13.4638 8.62219 13.5 8.75 13.5C8.87798 13.5 9.02453 13.4641 9.16797 13.416C9.32349 13.3639 9.51564 13.2832 9.74707 13.165L9.75293 13.1621C10.2422 12.9042 10.7132 12.6133 11.1641 12.293L11.165 12.2939C12.4914 11.3745 13.8309 10.2739 14.8359 9.00879L14.835 9.00781C15.8389 7.74432 16.4999 6.33165 16.5 4.78027C16.5 2.71641 14.6665 1 12.3496 1Z" fill="#ADADAD" stroke="#C084FC"/>
</svg>
