<svg width="20" height="22" viewBox="0 0 20 22" fill="none" xmlns="http://www.w3.org/2000/svg">
<path d="M4.83812 3.514L3.83812 4.294C2.32212 5.48 1.56312 6.072 1.15712 6.907C0.751122 7.742 0.750122 8.706 0.750122 10.635V12.727C0.750122 16.513 0.750122 18.407 1.92212 19.582C2.86512 20.53 4.27012 20.715 6.75012 20.75V16.756C6.75012 15.824 6.75012 15.358 6.90212 14.99C7.00274 14.7474 7.15018 14.5269 7.336 14.3413C7.52182 14.1556 7.74239 14.0084 7.98512 13.908C8.35212 13.756 8.81812 13.756 9.75012 13.756C10.6821 13.756 11.1481 13.756 11.5151 13.908C11.7578 14.0084 11.9784 14.1556 12.1642 14.3413C12.3501 14.5269 12.4975 14.7474 12.5981 14.99C12.7501 15.358 12.7501 15.824 12.7501 16.756V20.75C15.2301 20.714 16.6351 20.53 17.5781 19.582C18.7501 18.407 18.7501 16.514 18.7501 12.728V10.636C18.7501 8.706 18.7501 7.742 18.3431 6.907C17.9361 6.072 17.1781 5.48 15.6621 4.296L14.6621 3.515C12.3021 1.67 11.1221 0.75 9.75012 0.75C8.37812 0.75 7.19812 1.671 4.83812 3.514Z" stroke="white" stroke-width="1.5" stroke-linecap="round" stroke-linejoin="round"/>
</svg>
