<svg width="25" height="28" viewBox="0 0 25 28" fill="none" xmlns="http://www.w3.org/2000/svg">
<path d="M21.5625 14.6119V12.1875H19.6875V15C19.6876 15.2486 19.7864 15.487 19.9622 15.6628L22.5 18.2006V19.6875H1.875V18.2006L4.41281 15.6628C4.58864 15.487 4.68745 15.2486 4.6875 15V11.25C4.68505 9.9327 5.03026 8.63808 5.68825 7.49688C6.34624 6.35568 7.29372 5.40831 8.435 4.75046C9.57628 4.09261 10.8709 3.74756 12.1882 3.75017C13.5055 3.75278 14.7988 4.10295 15.9375 4.76531V2.66812C15.0451 2.27305 14.0959 2.0212 13.125 1.92188V0H11.25V1.92188C8.93866 2.15712 6.79665 3.24105 5.23816 4.96405C3.67967 6.68705 2.81541 8.92672 2.8125 11.25V14.6119L0.274687 17.1497C0.09886 17.3255 5.30976e-05 17.5639 0 17.8125V20.625C0 20.8736 0.098772 21.1121 0.274587 21.2879C0.450403 21.4637 0.68886 21.5625 0.9375 21.5625H7.5V22.5C7.5 23.7432 7.99386 24.9355 8.87294 25.8146C9.75201 26.6936 10.9443 27.1875 12.1875 27.1875C13.4307 27.1875 14.623 26.6936 15.5021 25.8146C16.3811 24.9355 16.875 23.7432 16.875 22.5V21.5625H23.4375C23.6861 21.5625 23.9246 21.4637 24.1004 21.2879C24.2762 21.1121 24.375 20.8736 24.375 20.625V17.8125C24.3749 17.5639 24.2761 17.3255 24.1003 17.1497L21.5625 14.6119ZM15 22.5C15 23.2459 14.7037 23.9613 14.1762 24.4887C13.6488 25.0162 12.9334 25.3125 12.1875 25.3125C11.4416 25.3125 10.7262 25.0162 10.1988 24.4887C9.67132 23.9613 9.375 23.2459 9.375 22.5V21.5625H15V22.5Z" fill="#00B2FF"/>
</svg>
